<svg id="Round" xmlns="http://www.w3.org/2000/svg" viewBox="0 0 1200 1200"><title>logo_circle</title><g id="left_copy_2" data-name="left copy 2"><path d="M600,0C268.63,0,0,268.63,0,600s268.63,600,600,600,600-268.63,600-600S931.37,0,600,0ZM480,741H204.29A422.28,422.28,0,0,0,338,928.26l-50,62.49A502.21,502.21,0,0,1,120.19,741h0q-1.61-5.44-3.07-11c-.19-.68-.35-1.36-.53-2q-1-3.88-2-7.8c-.34-1.37-.66-2.76-1-4.14-.47-1.95-.94-3.91-1.38-5.87-.07-.33-.16-.66-.23-1h0a497.66,497.66,0,0,1-8.42-49.2H480Zm0-460H326.78A417.39,417.39,0,0,0,192,500H480v81H100.36c.57-15.4,1.87-30.61,3.81-45.62h0c.2-1.55.41-3.08.63-4.62l.15-1.15c.42-3,.87-5.88,1.33-8.82l.27-1.66c.49-3,1-6,1.55-9.05l.09-.5A499.45,499.45,0,0,1,276.9,218.41l.1-.09q5.44-4.6,11-9.07h0q5.89-4.72,11.94-9.26H480Zm160,719H560V200h80Zm344.94-81H985a503.54,503.54,0,0,1-52,53.93l-.34.3q-2.33,2.07-4.66,4.11c-.95.83-1.91,1.65-2.87,2.47l-2.29,2q-5.39,4.58-10.9,9h0q-5.91,4.72-11.94,9.26H720V919H873.21a420,420,0,0,0,0-638H720V200H900q6,4.55,11.94,9.26h0q5.5,4.4,10.88,9c.88.74,1.74,1.49,2.61,2.24l2.55,2.19c1.63,1.42,3.24,2.84,4.85,4.28l.15.13A503,503,0,0,1,985,281h-.09a502.12,502.12,0,0,1,64,98.65,501,501,0,0,1,0,440.7A501.66,501.66,0,0,1,984.94,919Z"/></g></svg>